<?xml version="1.0" standalone="no"?><!DOCTYPE svg PUBLIC "-//W3C//DTD SVG 1.1//EN" "http://www.w3.org/Graphics/SVG/1.1/DTD/svg11.dtd"><svg t="1554343045140" class="icon" style="" viewBox="0 0 1024 1024" version="1.1" xmlns="http://www.w3.org/2000/svg" p-id="12955" xmlns:xlink="http://www.w3.org/1999/xlink" width="44" height="44"><defs><style type="text/css"></style></defs><path d="M409.6 691.2v102.4H512v-102.538378h-102.4z m0-256v102.4H512v-102.4h-102.4z m0-256v102.538378H512v-102.538378z m-204.8 512v102.4h102.538378v-102.538378H204.8z m0-256v102.4h102.538378v-102.4H204.8z m0-256v102.538378h102.538378v-102.538378z m460.8 307.2v409.6h204.8v-409.6H665.6z m0-102.4h256.138378a51.476757 51.476757 0 0 1 51.061622 51.338378v460.661622H1024v102.4H0v-102.4h51.2V76.384865a51.338378 51.338378 0 0 1 51.338378-50.784865h512a51.2 51.2 0 0 1 51.061622 50.923243v307.476757z" p-id="12956"></path></svg>