<?xml version="1.0" encoding="utf-8"?>
<!-- Generator: Adobe Illustrator 23.0.1, SVG Export Plug-In . SVG Version: 6.00 Build 0)  -->
<svg version="1.1" id="图层_1" xmlns="http://www.w3.org/2000/svg" xmlns:xlink="http://www.w3.org/1999/xlink" x="0px" y="0px"
	 viewBox="0 0 1024 1024" style="enable-background:new 0 0 1024 1024;" xml:space="preserve">
<path d="M1014.4,308.3c-5.8-18.3-25.4-25.8-42.9-15.8c-51.6,29.1-147.6,73.7-173.4,88.7v-97.4c-0.4-7.1-0.4-14.6-1.7-21.6
	c-8.3-54.1-55.3-94.5-110.3-94.5H119.5c-29.5,0-55.3,10.4-77,30.8c-23.7,22.5-34.5,50.8-34.5,83.6v457.3c0,10.8,0.4,21.2,3.3,31.6
	c12.9,51.6,56.6,85.3,110.7,85.3h563c6.7,0,13.3-0.4,20-1.7c54.1-9.2,92.8-54.9,92.8-110.3v-94.5c0-2.1-0.8-4.2,0.8-6.2
	c12.9,7.1,107.3,50.4,170.1,86.6c6.7,3.7,13.3,6.7,21.2,5.4c17.5-2.5,26.2-13.7,26.2-32.9V321.2
	C1016.1,317.1,1015.6,312.5,1014.4,308.3z M489.6,543L315.8,654.3c-14.1,8.9-31.6-2.3-31.6-20.2V389.9c0-17.9,17.5-29.1,31.6-20.2
	L489.6,481C512.1,495.5,512.1,528.5,489.6,543z"/>
</svg>
