<?xml version="1.0" standalone="no"?><!DOCTYPE svg PUBLIC "-//W3C//DTD SVG 1.1//EN" "http://www.w3.org/Graphics/SVG/1.1/DTD/svg11.dtd"><svg t="1573609156031" class="icon" viewBox="0 0 1024 1024" version="1.1" xmlns="http://www.w3.org/2000/svg" p-id="1570" xmlns:xlink="http://www.w3.org/1999/xlink" width="200" height="200"><defs><style type="text/css"></style></defs><path d="M903.529412 586.135747h-76.452489c-13.900452 0-23.167421 9.266968-23.167421 23.16742s9.266968 23.167421 23.167421 23.167421h76.452489c2.316742 0 2.316742 0 2.316742 2.316742v340.561086s0 2.316742-2.316742 2.316742h-118.153846v-393.846153c0-9.266968-4.633484-16.217195-11.583711-20.850679l-333.61086-189.972851c-6.950226-4.633484-16.217195-4.633484-23.16742 0L83.402715 565.285068c-6.950226 2.316742-11.58371 11.58371-11.58371 18.533937v417.013574c0 13.900452 9.266968 23.167421 23.16742 23.167421h808.542987c27.800905 0 48.651584-20.850679 48.651583-48.651584V634.78733c0-27.800905-20.850679-48.651584-48.651583-48.651583z m-171.438914 391.529411H118.153846V597.719457l310.443439-176.072398 310.443439 176.072398v379.945701h-6.950226z" p-id="1571" fill="#e6e6e6"></path><path d="M94.986425 507.366516c4.633484 0 9.266968 0 11.583711-2.316742l322.027149-194.606335 322.027149 194.606335c11.58371 6.950226 25.484163 2.316742 32.43439-6.950226 6.950226-11.58371 2.316742-25.484163-6.950227-32.43439L442.497738 264.108597c-6.950226-4.633484-16.217195-4.633484-23.167421 0l-231.674208 139.004525v-83.402715c0-13.900452-9.266968-23.167421-23.167421-23.167421s-23.167421 9.266968-23.167421 23.167421v111.20362L83.402715 463.348416c-11.58371 6.950226-13.900452 20.850679-6.950226 32.434389 2.316742 6.950226 11.58371 11.58371 18.533936 11.583711zM523.58371 651.004525c-11.58371-13.900452-27.800905-20.850679-44.018099-20.850679s-32.434389 4.633484-46.334842 16.217195c-6.950226 4.633484-16.217195 4.633484-23.167421 0-11.58371-11.58371-27.800905-16.217195-46.334841-16.217195-16.217195 0-32.434389 9.266968-44.0181 20.850679l-6.950226 9.266968c-9.266968 11.58371-16.217195 25.484163-16.217195 41.701358v34.751131c0 18.533937 9.266968 37.067873 23.167421 48.651584l60.235294 48.651583c11.58371 9.266968 25.484163 13.900452 39.384616 13.900453 13.900452 0 27.800905-4.633484 39.384615-13.900453l60.235294-48.651583c13.900452-11.58371 23.167421-30.117647 23.167421-48.651584v-34.751131c0-16.217195-4.633484-30.117647-16.217195-41.701358l-2.316742-9.266968z m-23.16742 85.719457c0 4.633484-2.316742 9.266968-6.950227 13.900452l-60.235294 48.651584c-6.950226 4.633484-16.217195 4.633484-20.850679 0l-60.235294-48.651584c-4.633484-2.316742-6.950226-6.950226-6.950226-13.900452v-34.751131c0-4.633484 2.316742-6.950226 4.633484-11.583711l6.950227-9.266968c2.316742-2.316742 6.950226-4.633484 11.58371-4.633484s6.950226 2.316742 11.58371 4.633484c23.167421 20.850679 60.235294 20.850679 83.402715 0 2.316742-2.316742 6.950226-4.633484 11.583711-4.633484s9.266968 2.316742 11.58371 4.633484l6.950226 9.266968c2.316742 2.316742 4.633484 6.950226 4.633485 11.583711v34.751131zM206.190045 203.873303c9.266968 6.950226 20.850679 11.58371 34.751131 11.583711 11.58371 0 23.167421-4.633484 32.43439-11.583711l46.334841-37.067873c11.58371-9.266968 18.533937-25.484163 18.533937-41.701358V97.303167c0-13.900452-4.633484-25.484163-13.900453-34.751131l-4.633484-6.950226c-9.266968-11.58371-23.167421-16.217195-37.067873-18.533937-13.900452 0-27.800905 4.633484-39.384615 13.900453-2.316742 2.316742-6.950226 2.316742-9.266969 0-11.58371-9.266968-23.167421-13.900452-39.384615-13.900453-13.900452 2.316742-25.484163 9.266968-34.751131 18.533937l-6.950227 6.950226c-9.266968 9.266968-13.900452 23.167421-13.900452 34.751131v25.484163c0 16.217195 6.950226 30.117647 18.533937 41.701358l48.651583 39.384615z m-20.850678-106.570136S187.656109 94.986425 187.656109 92.669683l4.633484-6.950226c2.316742-2.316742 4.633484-2.316742 4.633484-2.316742 2.316742 0 2.316742 0 4.633484 2.316742 20.850679 18.533937 50.968326 18.533937 71.819005 0 2.316742-2.316742 4.633484-2.316742 4.633484-2.316742 2.316742 0 2.316742 0 4.633484 2.316742l6.950226 6.950226c0 2.316742 2.316742 2.316742 2.316742 4.633484v25.484163c0 2.316742 0 4.633484-2.316742 4.633484l-46.334841 37.067874c-2.316742 2.316742-6.950226 2.316742-9.266969 0L187.656109 129.737557c0-2.316742-2.316742-2.316742-2.316742-4.633485V97.303167z" p-id="1572" fill="#e6e6e6"></path></svg>