<?xml version="1.0" encoding="utf-8"?>
<!-- Generator: Adobe Illustrator 23.0.1, SVG Export Plug-In . SVG Version: 6.00 Build 0)  -->
<svg version="1.1" id="图层_1" xmlns="http://www.w3.org/2000/svg" xmlns:xlink="http://www.w3.org/1999/xlink" x="0px" y="0px"
	 viewBox="0 0 1024 1024" style="enable-background:new 0 0 1024 1024;" xml:space="preserve">
<path d="M63.1,427.8h897.8c31,0,56.1,25.1,56.1,56.1v0v336.7c0,31-25.1,56.1-56.1,56.1l0,0H63.1c-31,0-56.1-25.1-56.1-56.1V483.9
	C7,453,32.1,427.8,63.1,427.8z M315.6,596.2c-15.5,0-28.1,12.6-28.1,28.1l0,0v28.1c0,15.5,12.6,28.1,28.1,28.1c0,0,0,0,0,0h28.1
	c15.5,0,28.1-12.6,28.1-28.1l0,0v-28.1c0-15.5-12.6-28.1-28.1-28.1H315.6z M147.3,596.2c-15.5,0-28.1,12.6-28.1,28.1l0,0v28.1
	c0,15.5,12.6,28.1,28.1,28.1h0h28.1c15.5,0,28.1-12.6,28.1-28.1c0,0,0,0,0,0v-28.1c0-15.5-12.6-28.1-28.1-28.1H147.3z"/>
<path d="M852.3,203.4H171.7L88.9,416.6H935L852.3,203.4z M171.7,147.3h680.6c23.2,0,44,14.2,52.4,35.8L1017,472.7H7l112.3-289.7
	C127.7,161.5,148.5,147.3,171.7,147.3z"/>
</svg>
