<?xml version="1.0" standalone="no"?><!DOCTYPE svg PUBLIC "-//W3C//DTD SVG 1.1//EN" "http://www.w3.org/Graphics/SVG/1.1/DTD/svg11.dtd"><svg t="1573025306296" class="icon" viewBox="0 0 1024 1024" version="1.1" xmlns="http://www.w3.org/2000/svg" p-id="1133" xmlns:xlink="http://www.w3.org/1999/xlink" width="200" height="200"><defs><style type="text/css"></style></defs><path d="M1007.424982 936.798522h-50.014197v-620.057478c0-16.653434-8.865663-32.067292-23.228576-40.474852l-253.84361-148.102386a46.780521 46.780521 0 0 0-70.386359 40.474851v768.186813h-53.247874V46.836841A46.861363 46.861363 0 0 0 491.437994 3.801995L94.77367 174.162855A46.834415 46.834415 0 0 0 66.425106 217.1977v719.62777H16.572592A16.59954 16.59954 0 0 0 0 953.398062v54.002398c0 9.162084 7.437456 16.59954 16.572592 16.59954h990.85239c9.162084 0 16.572592-7.437456 16.572593-16.59954V953.398062a16.59954 16.59954 0 0 0-16.572593-16.59954z m-268.179575-640.887745c0-9.162084 7.437456-16.59954 16.59954-16.59954h52.68198c9.162084 0 16.59954 7.437456 16.59954 16.59954v52.735875c0 9.162084-7.437456 16.59954-16.59954 16.59954h-52.68198a16.59954 16.59954 0 0 1-16.59954-16.59954v-52.735875z m0 132.796317c0-9.162084 7.437456-16.59954 16.59954-16.59954h52.68198c9.162084 0 16.59954 7.410509 16.59954 16.59954v52.735875c0 9.162084-7.437456 16.59954-16.59954 16.59954h-52.68198a16.59954 16.59954 0 0 1-16.59954-16.59954v-52.735875z m0 132.76937c0-9.162084 7.437456-16.59954 16.59954-16.59954h52.68198c9.162084 0 16.59954 7.437456 16.59954 16.59954v52.735875c0 9.162084-7.437456 16.59954-16.59954 16.59954h-52.68198a16.59954 16.59954 0 0 1-16.59954-16.59954v-52.735875z m0 132.76937c0-9.162084 7.437456-16.59954 16.59954-16.59954h52.68198c9.162084 0 16.59954 7.437456 16.59954 16.59954v52.735875c0 9.162084-7.437456 16.59954-16.59954 16.599539h-52.68198a16.59954 16.59954 0 0 1-16.59954-16.599539v-52.735875z m0 132.796317c0-9.162084 7.437456-16.59954 16.59954-16.59954h52.68198c9.162084 0 16.59954 7.410509 16.59954 16.59954v52.735875c0 9.162084-7.437456 16.59954-16.59954 16.599539h-52.68198a16.59954 16.59954 0 0 1-16.59954-16.599539V827.015203zM347.835808 163.141407c0-9.162084 7.437456-16.59954 16.599539-16.599539h52.681981c9.162084 0 16.572592 7.437456 16.572592 16.599539V215.850335c0 9.162084-7.410509 16.59954-16.572592 16.59954h-52.681981a16.59954 16.59954 0 0 1-16.599539-16.59954V163.141407z m0 132.76937c0-9.162084 7.437456-16.59954 16.599539-16.59954h52.681981c9.162084 0 16.572592 7.437456 16.572592 16.59954v52.735875c0 9.162084-7.410509 16.59954-16.572592 16.59954h-52.681981a16.59954 16.59954 0 0 1-16.599539-16.59954v-52.735875z m0 132.796317c0-9.162084 7.437456-16.59954 16.599539-16.59954h52.681981c9.162084 0 16.572592 7.410509 16.572592 16.59954v52.735875c0 9.162084-7.410509 16.59954-16.572592 16.59954h-52.681981a16.59954 16.59954 0 0 1-16.599539-16.59954v-52.735875z m0 132.76937c0-9.162084 7.437456-16.59954 16.599539-16.59954h52.681981c9.162084 0 16.572592 7.437456 16.572592 16.59954v52.735875c0 9.162084-7.410509 16.59954-16.572592 16.59954h-52.681981a16.59954 16.59954 0 0 1-16.599539-16.59954v-52.735875z m0 132.76937c0-9.162084 7.437456-16.59954 16.599539-16.59954h52.681981c9.162084 0 16.572592 7.437456 16.572592 16.59954v52.735875c0 9.162084-7.410509 16.59954-16.572592 16.599539h-52.681981a16.59954 16.59954 0 0 1-16.599539-16.599539v-52.735875z m0 132.796317c0-9.162084 7.437456-16.59954 16.599539-16.59954h52.681981c9.162084 0 16.572592 7.410509 16.572592 16.59954v52.735875c0 9.162084-7.410509 16.59954-16.572592 16.599539h-52.681981a16.59954 16.59954 0 0 1-16.599539-16.599539V827.015203zM188.119133 295.88383c0-9.162084 7.410509-16.59954 16.572593-16.59954h52.708928c9.162084 0 16.572592 7.437456 16.572592 16.59954v52.735875c0 9.162084-7.437456 16.59954-16.572592 16.599539H204.691726a16.59954 16.59954 0 0 1-16.572593-16.599539v-52.735875z m0 132.796317c0-9.162084 7.410509-16.59954 16.572593-16.59954h52.708928c9.162084 0 16.572592 7.410509 16.572592 16.59954v52.735875c0 9.162084-7.437456 16.59954-16.572592 16.59954H204.691726a16.59954 16.59954 0 0 1-16.572593-16.59954v-52.735875z m0 132.76937c0-9.162084 7.410509-16.59954 16.572593-16.59954h52.708928c9.162084 0 16.572592 7.437456 16.572592 16.59954v52.735875c0 9.162084-7.437456 16.59954-16.572592 16.599539H204.691726a16.59954 16.59954 0 0 1-16.572593-16.599539v-52.735875z m0 132.769369c0-9.162084 7.410509-16.59954 16.572593-16.599539h52.708928c9.162084 0 16.572592 7.437456 16.572592 16.599539v52.735875c0 9.162084-7.437456 16.59954-16.572592 16.59954H204.691726a16.59954 16.59954 0 0 1-16.572593-16.59954v-52.735875z m0 132.796317c0-9.162084 7.410509-16.59954 16.572593-16.599539h52.708928c9.162084 0 16.572592 7.410509 16.572592 16.599539v52.735875c0 9.162084-7.437456 16.59954-16.572592 16.59954H204.691726a16.59954 16.59954 0 0 1-16.572593-16.59954V827.015203z" fill="#686871" p-id="1134"></path></svg>