<?xml version="1.0" standalone="no"?><!DOCTYPE svg PUBLIC "-//W3C//DTD SVG 1.1//EN" "http://www.w3.org/Graphics/SVG/1.1/DTD/svg11.dtd"><svg t="1554343659802" class="icon" style="" viewBox="0 0 1024 1024" version="1.1" xmlns="http://www.w3.org/2000/svg" p-id="36856" xmlns:xlink="http://www.w3.org/1999/xlink" width="44" height="44"><defs><style type="text/css"></style></defs><path d="M410.344 115.575H118.927c-15.947 0-29.054 12.889-29.054 29.054v308.238c0 16.165 13.107 29.054 29.054 29.054h291.198c16.165 0 29.054-13.107 29.054-29.054V144.629c0.219-16.165-12.889-29.054-28.836-29.054z m0 465.96H118.927c-16.165 0-29.054 13.107-29.054 29.054v291.417c0 16.165 13.107 29.054 29.054 29.054h291.198c16.165 0 29.054-13.107 29.054-29.054V610.589c0.219-15.947-12.889-29.054-28.836-29.054z m465.961 0H585.107c-16.165 0-29.054 13.107-29.054 29.054v291.417c0 16.165 13.107 29.054 29.054 29.054h291.198c16.165 0 29.054-13.107 29.054-29.054V610.589c0-15.947-12.889-29.054-29.054-29.054z m60.074-329.208L768.607 84.555c-10.704-10.704-24.903-16.603-39.977-16.603s-29.273 5.899-39.977 16.603L520.881 252.327c-10.704 10.704-16.603 24.903-16.603 39.977s5.899 29.273 16.603 39.977l167.772 167.772c10.704 10.704 24.903 16.603 39.977 16.603s29.273-5.899 39.977-16.603l167.772-167.772c22.064-22.064 22.064-57.89 0-79.954zM728.63 447.187L573.747 292.304 728.63 137.421l154.883 154.883L728.63 447.187z" fill="" p-id="36857"></path></svg>