<?xml version="1.0" encoding="utf-8"?>
<!-- Generator: Adobe Illustrator 23.0.1, SVG Export Plug-In . SVG Version: 6.00 Build 0)  -->
<svg version="1.1" id="图层_1" xmlns="http://www.w3.org/2000/svg" xmlns:xlink="http://www.w3.org/1999/xlink" x="0px" y="0px"
	 viewBox="0 0 1024 1024" style="enable-background:new 0 0 1024 1024;" xml:space="preserve">
<path d="M647.2,923.8l-5.2-2.2l-7.3-4.2c-32.8-13.9-56-46.5-56-83.8v-36.9c0-26,10.7-49.4,27.8-65.9c0,0,11.7-12.3,16.1-15.7
	c6.6-4.6,24.7-8.5,24.7-8.5c-9.9-35.7,3.2-74.7,33.2-96.7C629.7,578,571,561.1,511,561.1H320.7C143.9,561.1,0,705.4,0,882.5v19.1
	c0,92.7,141.6,92.7,320.7,92.7H511c51.3,0,100.6,0,144.4-2.4C643.9,971.1,641,946.7,647.2,923.8 M406.4,536.5
	c140,0,253.9-114.2,253.9-254.6S546.4,27.2,406.4,27.2c-140,0-254.1,114.2-254.1,254.7S266.3,536.5,406.4,536.5 M997.3,766.3
	c-26-1.8-45.9-23-45.9-48.4c0-7.9,1.8-15.1,5.4-21.8c6.7-13.9,1.8-31.5-12.1-39.3l-16.3-9.7l-15.7-9.1c-13.9-7.9-30.8-3.6-39.8,9.1
	c-8.5,13.3-23.6,21.8-40.5,21.8c-16.9,0-32-8.5-40.4-21.8c-9.1-12.7-26-16.9-39.9-9.1l-16.9,9.1l-15.7,9.1
	c-13.9,7.9-18.7,25.4-12.1,39.3c3.6,6.7,5.4,13.9,5.4,21.8c0,26-19.9,46.6-45.9,48.4v0.6c-15.7,1.2-27.8,13.9-27.8,30.2v36.9
	c0,15.7,12.7,29,27.8,30.2l0.6,0.6c25.4,1.2,45.3,22.4,45.3,48.4c0,7.9-1.8,15.1-5.4,21.8c-6.7,13.9-1.9,31.5,12.1,39.3l32,18.7
	c13.9,7.9,31.4,3.6,39.9-9.1c8.5-13.3,23.5-21.8,40.4-21.8s32,9.1,40.5,21.8c9.1,12.7,26,17.6,39.8,9.1l32-18.7
	c13.3-7.9,18.7-24.8,12.1-38.7c0,0,0-0.6-0.6-0.6c-0.6-0.6-0.6-1.2-1.2-1.8l-0.6-0.6c-2.4-6-3.7-12.3-3.7-18.7
	c0-26,20-46.6,45.3-48.4l0.6-0.6c15.8-1.1,28-14.4,27.8-30.2V796C1025.1,780.2,1012.4,767.5,997.3,766.3 M902.5,840.7
	c-3,8.5-7.9,16.3-13.3,23c-10.9,12.7-26.6,22.4-44.1,25.4c-4.4,0.7-8.8,1.1-13.3,1.2c-4.2,0-9.1-0.6-13.3-1.2
	c-17.5-3-33.2-12.7-44.1-25.4c-6.1-6.7-10.3-14.5-13.3-23c-3.1-8.1-4.8-16.7-4.8-25.4c0-9.1,1.8-17.5,4.2-25.4
	c3-8.5,7.3-16.3,13.3-23c10.9-13.3,26.6-22.4,44.7-25.4c4.2-0.6,8.5-1.2,13.3-1.2c4.9,0,9.1,0.6,13.3,1.2
	c17.5,3,33.2,12.7,44.7,25.4c5.4,6.7,10.3,14.5,13.3,23c3.1,7.9,4.2,16.3,4.2,25.4C907.3,824,905.6,832.6,902.5,840.7"/>
</svg>
