<?xml version="1.0" encoding="utf-8"?>
<!-- Generator: Adobe Illustrator 23.0.1, SVG Export Plug-In . SVG Version: 6.00 Build 0)  -->
<svg version="1.1" id="图层_1" xmlns="http://www.w3.org/2000/svg" xmlns:xlink="http://www.w3.org/1999/xlink" x="0px" y="0px"
	 viewBox="0 0 1024 1024" style="enable-background:new 0 0 1024 1024;" xml:space="preserve">
<path d="M243.6,85.3h681.1V0H223.2C153.1,1.9,97.7,59.1,99.4,128v768c-1.7,68.9,53.7,126.1,123.8,128h701.5V170.7H243.6
	c-24,0-43.4-19.1-43.4-42.7S219.6,85.3,243.6,85.3z M532.4,298.7c81.9,2.1,146.6,68.9,144.6,149.3c1.9,80.3-62.5,147-144.2,149.3
	C451.2,595,386.7,528.3,388.7,448c-1.9-80.3,62.5-147,144.2-149.3L532.4,298.7z M420.8,601.2c64.9,51.8,157.9,51.8,222.8,0
	c75.9,45.5,126.3,122.8,136.8,209.5H285.3c9.4-86.9,59.7-164.4,136-209.5L420.8,601.2z"/>
</svg>
