<?xml version="1.0" standalone="no"?><!DOCTYPE svg PUBLIC "-//W3C//DTD SVG 1.1//EN" "http://www.w3.org/Graphics/SVG/1.1/DTD/svg11.dtd"><svg t="1554343830320" class="icon" style="" viewBox="0 0 1024 1024" version="1.1" xmlns="http://www.w3.org/2000/svg" p-id="42069" xmlns:xlink="http://www.w3.org/1999/xlink" width="44" height="44"><defs><style type="text/css"></style></defs><path d="M968.704 257.024c-2.56-2.56-4.608-5.632-7.168-7.68-6.656-6.144-14.848-11.264-23.04-15.36-122.88-60.928-246.272-121.856-369.152-182.784-10.24-5.12-22.016-8.704-33.792-10.24h-11.264C495.616 46.08 471.04 61.44 445.44 74.24c-111.616 54.272-222.72 109.056-333.824 163.84-17.408 8.704-30.72 22.016-33.792 43.008 0 0.512-0.512 1.536-0.512 2.048V291.84c2.048 9.728 4.608 18.432 11.264 26.112 2.048 2.56 4.096 5.12 7.168 7.168 6.656 5.632 13.824 10.752 21.504 14.848 123.904 61.44 247.808 122.88 372.224 183.808 10.24 5.12 21.504 10.24 33.28 11.264 11.776 1.024 24.064-1.024 34.816-6.144l376.32-185.344c4.096-2.048 8.704-4.096 12.8-6.144 11.776-7.168 22.528-15.36 29.184-28.16 2.56-5.632 4.096-11.776 5.632-17.408v-8.704c-2.56-9.216-6.656-18.432-12.8-26.112z" p-id="42070"></path><path d="M926.72 466.432c-13.312-2.56-27.136-0.512-38.912 5.12-24.064 12.288-47.616 24.576-71.68 36.352-94.208 46.08-188.928 92.16-283.136 138.24-2.56 1.536-4.608 1.536-7.68 0C409.6 589.312 293.888 532.48 178.176 475.136c-18.432-9.728-39.936-12.288-60.928-8.704-21.504 4.096-36.352 22.528-39.424 45.568 0 1.024-0.512 2.56-1.024 3.584v11.776c2.048 9.216 4.608 18.432 10.752 26.112 5.632 7.168 12.288 13.312 20.48 17.408 126.976 64 253.952 128.512 381.44 192.512 10.24 5.12 20.992 10.24 32.768 11.264 11.776 1.024 23.552-1.024 33.792-6.144 130.56-64 261.12-127.488 391.68-191.488 17.408-8.704 27.648-24.064 31.232-43.008l1.024-4.096v-10.752c-1.024-4.096-2.048-8.192-3.584-11.776-8.704-23.552-26.112-36.352-49.664-40.96z" p-id="42071"></path><path d="M926.72 698.88c-13.312-2.56-27.136-1.024-38.912 5.12-24.064 12.288-48.128 25.088-72.192 36.864-94.208 46.08-187.904 91.648-281.6 137.728-3.072 1.536-6.656 1.536-9.216 0-115.2-56.832-229.888-113.664-345.088-170.496-16.896-8.192-36.352-11.776-55.808-9.728-22.528 1.536-39.936 18.432-44.544 41.472l-2.048 8.704v11.776c2.048 9.216 4.608 17.92 10.752 25.6 6.144 7.68 12.8 13.824 21.504 17.92 125.952 64 252.928 128 379.904 192 10.752 5.632 22.528 10.752 34.816 11.776h8.704c10.24-1.536 19.968-5.12 29.184-9.728 11.776-6.144 24.576-11.264 36.864-16.896 115.712-56.832 231.936-113.664 347.648-170.496 18.432-9.216 29.184-24.064 33.28-44.544l1.024-3.584v-10.752c-1.024-4.096-2.048-8.192-3.584-11.776-9.728-24.064-27.136-36.352-50.688-40.96z" p-id="42072"></path></svg>