<?xml version="1.0" standalone="no"?><!DOCTYPE svg PUBLIC "-//W3C//DTD SVG 1.1//EN" "http://www.w3.org/Graphics/SVG/1.1/DTD/svg11.dtd"><svg t="1562830172808" class="icon" viewBox="0 0 1024 1024" version="1.1" xmlns="http://www.w3.org/2000/svg" p-id="1766" xmlns:xlink="http://www.w3.org/1999/xlink" width="200" height="200"><defs><style type="text/css"></style></defs><path d="M288 288h448v268.8H288z" p-id="1767" fill="#cdcdcd"></path><path d="M825.6 153.6H153.6v89.6h44.8V601.6H153.6v44.8h313.6V704c-25.6 16-44.8 44.8-44.8 76.8 0 48 41.6 89.6 89.6 89.6 48 0 89.6-41.6 89.6-89.6 0-32-19.2-60.8-44.8-76.8v-57.6h313.6v-44.8h-44.8V243.2h44.8V153.6h-44.8z m-313.6 672c-25.6 0-44.8-19.2-44.8-44.8 0-25.6 19.2-44.8 44.8-44.8 25.6 0 44.8 19.2 44.8 44.8 0 25.6-19.2 44.8-44.8 44.8z m268.8-224H243.2V243.2h537.6v358.4z" p-id="1768" fill="#cdcdcd"></path></svg>