<?xml version="1.0" standalone="no"?><!DOCTYPE svg PUBLIC "-//W3C//DTD SVG 1.1//EN" "http://www.w3.org/Graphics/SVG/1.1/DTD/svg11.dtd"><svg t="1554343513481" class="icon" style="" viewBox="0 0 1075 1024" version="1.1" xmlns="http://www.w3.org/2000/svg" p-id="27801" xmlns:xlink="http://www.w3.org/1999/xlink" width="46.19140625" height="44"><defs><style type="text/css"></style></defs><path d="M958.4128 56.0128c0-21.0688-17.2544-38.3232-38.3232-38.3232H39.8592C18.7904 17.6896 1.536 34.944 1.536 56.0128v689.152a38.4 38.4 0 0 0 38.3232 38.3232h32.7168a38.4 38.4 0 0 0 38.2976-38.2976V167.2704a38.4 38.4 0 0 1 38.3232-38.2976H920.064c21.0688 0 38.3232-17.2544 38.3232-38.3232V56.0128z" p-id="27802"></path><path d="M1028.992 202.752H225.4336c-24.6528 0-44.6464 19.968-44.6464 44.6464v714.2656c0 24.6528 19.968 44.6464 44.6464 44.6464h803.584c24.6784 0 44.6208-19.968 44.6208-44.6464v-714.24a44.672 44.672 0 0 0-44.6464-44.672z m-89.2928 669.5936H314.7008V649.216l133.9648-133.9392 223.2064 223.1808 133.9648-133.888 133.888 133.888v133.9136z m-89.2928-357.12a89.2416 89.2416 0 0 1-89.2416-89.2416 89.1904 89.1904 0 0 1 89.2416-89.2928 89.216 89.216 0 0 1 89.2928 89.2928 89.2416 89.2416 0 0 1-89.2928 89.2672z" p-id="27803"></path></svg>