<?xml version="1.0" standalone="no"?><!DOCTYPE svg PUBLIC "-//W3C//DTD SVG 1.1//EN" "http://www.w3.org/Graphics/SVG/1.1/DTD/svg11.dtd"><svg t="1593401935983" class="icon" viewBox="0 0 1024 1024" version="1.1" xmlns="http://www.w3.org/2000/svg" p-id="2347" xmlns:xlink="http://www.w3.org/1999/xlink" width="200" height="200"><defs><style type="text/css"></style></defs><path d="M321.024 321.8432c22.784 0 42.5984-18.5088 42.5984-41.344v-187.904c0-22.8608-19.8144-41.3952-42.624-41.3952s-41.2928 18.5344-41.2928 41.3696v187.9296c0 22.8352 18.4832 41.344 41.2928 41.344z m416.896 333.824a62.72 62.72 0 0 0 62.6688-62.7968 62.7456 62.7456 0 0 0-62.6688-62.7712 62.72 62.72 0 0 0-62.6688 62.7712 62.72 62.72 0 0 0 62.6688 62.8224z m-229.2224 229.6832a62.72 62.72 0 0 0 62.6688-62.8224 62.7456 62.7456 0 0 0-62.6688-62.7968 62.7712 62.7712 0 0 0-62.72 62.7968 62.7456 62.7456 0 0 0 62.72 62.8224z m-230.6816 0a62.72 62.72 0 0 0 62.6688-62.8224 62.72 62.72 0 0 0-62.6688-62.7968A62.7456 62.7456 0 0 0 215.296 822.528a62.72 62.72 0 0 0 62.6944 62.8224z m230.656-229.6576a62.72 62.72 0 0 0 62.6944-62.8224 62.7456 62.7456 0 0 0-62.6688-62.7712 62.7456 62.7456 0 0 0-62.72 62.7712 62.7456 62.7456 0 0 0 62.72 62.8224z m-229.5552 0a62.7456 62.7456 0 0 0 62.72-62.8224 62.7456 62.7456 0 0 0-62.72-62.7712 62.7712 62.7712 0 0 0-62.6944 62.7712 62.7456 62.7456 0 0 0 62.6944 62.8224z m626.1504 248.064c0 23.808-20.0448 43.8528-43.776 43.8528H156.9792c-23.7312 0-43.776-20.0704-43.776-43.8272V468.1216h792.064v435.6608zM858.5216 155.392h-77.7472v62.1312h80.7424c23.7056 0 43.7504 20.0704 43.7504 43.8272v144.5632H113.2032v-144.5632c0-23.7568 20.0448-43.8272 43.776-43.8272h81.2544V155.3664H160.6144C100.4288 155.3664 51.2 204.672 51.2 264.96V900.608c0 60.2624 47.4112 109.568 107.5968 109.568h699.7248c60.16 0 109.4144-49.3056 109.4144-109.568V264.96c0-60.288-49.28-109.5936-109.4144-109.5936z m-453.888 62.464h209.152v-62.464h-209.152v62.464z m291.6352 104.0128c22.8096 0 42.624-18.5088 42.624-41.344v-187.904c0-22.8608-19.8144-41.3952-42.624-41.3952s-41.2928 18.5344-41.2928 41.3696v187.9296c0 22.8352 18.4832 41.344 41.2928 41.344z" fill="#3CA4FB" p-id="2348"></path></svg>